<svg width="108" height="38" viewBox="0 0 108 38" fill="none" xmlns="http://www.w3.org/2000/svg">
<path d="M10.0264 9.35C9.5597 9.45 9.19303 9.63333 8.92637 9.9C8.8597 9.96667 8.79303 10.0833 8.72637 10.25C8.69303 10.3833 8.6597 10.4833 8.62637 10.55C8.5597 10.65 8.49303 11.2333 8.42637 12.3C8.39303 13.3667 8.3597 14.6333 8.32637 16.1C8.29303 17.5667 8.27637 19.1 8.27637 20.7C8.27637 22.2667 8.32637 23.6333 8.42637 24.8C8.52637 25.7667 8.77637 26.7167 9.17637 27.65C9.6097 28.55 10.3097 29.1333 11.2764 29.4C12.0097 29.4667 12.693 29.3667 13.3264 29.1C13.993 28.8 14.493 28.3167 14.8264 27.65C15.193 26.8833 15.343 26.0833 15.2764 25.25C15.243 24.3833 15.3097 23.5333 15.4764 22.7C15.943 22.7667 16.4597 22.7833 17.0264 22.75C17.6264 22.7167 18.2264 22.7 18.8264 22.7C19.4264 22.7 20.0097 22.7167 20.5764 22.75C21.1764 22.7833 21.7097 22.8667 22.1764 23C22.743 24.7333 22.893 26.4667 22.6264 28.2C22.3597 29.9 21.7764 31.4333 20.8764 32.8C19.9764 34.1667 18.793 35.3 17.3264 36.2C15.893 37.0667 14.2597 37.5167 12.4264 37.55C11.2264 37.7167 9.99303 37.7167 8.72637 37.55C7.4597 37.4167 6.27637 37.1 5.17637 36.6C4.07637 36.0667 3.14303 35.3333 2.37637 34.4C1.64303 33.4667 1.2097 32.3 1.07637 30.9C1.0097 29.7 0.959701 28.45 0.926367 27.15C0.893034 25.85 0.859701 24.4 0.826367 22.8C0.826367 21.1667 0.826367 19.3333 0.826367 17.3C0.859701 15.2333 0.893034 12.85 0.926367 10.15C0.859701 9.58333 0.876367 9.01667 0.976367 8.45C1.1097 7.85 1.27637 7.3 1.47637 6.8C1.77637 5.93333 2.14303 5.13333 2.57637 4.4C3.04303 3.66667 3.59303 3.01667 4.22637 2.45C4.59303 2.18333 4.99303 1.96666 5.42637 1.8C5.8597 1.6 6.3097 1.43333 6.77637 1.3C8.3097 0.799998 9.82637 0.599999 11.3264 0.699999C12.8264 0.799998 14.2264 1.15 15.5264 1.75C16.8597 2.31667 18.0597 3.08333 19.1264 4.05C20.193 5.01666 21.043 6.13333 21.6764 7.4C22.3097 8.63333 22.693 9.98333 22.8264 11.45C22.9597 12.9167 22.7597 14.4167 22.2264 15.95C20.993 16.2167 19.7764 16.3167 18.5764 16.25C17.4097 16.15 16.193 15.9833 14.9264 15.75C14.8264 15.1167 14.7597 14.4 14.7264 13.6C14.7264 12.8 14.643 12.0667 14.4764 11.4C14.3097 10.7 13.993 10.1333 13.5264 9.7C13.093 9.26667 12.393 9.06667 11.4264 9.1C10.993 9.16666 10.5264 9.25 10.0264 9.35ZM44.0904 1.65C44.7238 1.65 45.2904 1.66667 45.7904 1.7L47.1404 36.7C46.5738 36.8 45.9571 36.8667 45.2904 36.9C44.6571 36.9333 44.0238 36.95 43.3904 36.95C42.7904 36.95 42.1904 36.95 41.5904 36.95C41.0238 36.95 40.5404 36.9667 40.1404 37H40.0904C39.9238 35.9 39.8071 34.7667 39.7404 33.6C39.7071 32.4 39.6738 31.2167 39.6404 30.05C39.6404 28.8833 39.6238 27.7167 39.5904 26.55C39.5571 25.3833 39.4738 24.2667 39.3404 23.2L39.2904 23.15C38.3238 22.9833 37.3571 22.9 36.3904 22.9C35.4238 22.9 34.4571 23.0167 33.4904 23.25C33.3904 24.4167 33.3404 25.5667 33.3404 26.7C33.3738 27.8333 33.4071 28.9667 33.4404 30.1C33.4738 31.2333 33.4738 32.35 33.4404 33.45C33.4404 34.5167 33.3571 35.5833 33.1904 36.65C32.7904 36.8833 32.2571 37 31.5904 37C30.9238 37 30.2571 36.9667 29.5904 36.9C28.9238 36.8333 28.2904 36.7833 27.6904 36.75C27.1238 36.7167 26.6904 36.7833 26.3904 36.95C26.3238 36.0167 26.2404 34.75 26.1404 33.15C26.0738 31.5167 26.0071 29.7 25.9404 27.7C25.8738 25.6667 25.8071 23.5167 25.7404 21.25C25.7071 18.9833 25.6738 16.7167 25.6404 14.45C25.6071 12.15 25.5904 9.95 25.5904 7.85C25.6238 5.71667 25.6571 3.8 25.6904 2.1V2.05H25.7404H25.8404C26.3404 2.15 26.8571 2.18333 27.3904 2.15C27.9571 2.11667 28.5071 2.08333 29.0404 2.05C29.6071 2.01666 30.1571 2 30.6904 2C31.2238 2 31.7238 2.06666 32.1904 2.2C32.4904 4.5 32.6404 6.73333 32.6404 8.9C32.6404 11.0667 32.8404 13.2167 33.2404 15.35H33.2904C34.1238 15.55 35.0238 15.6167 35.9904 15.55C36.9571 15.45 37.8571 15.3667 38.6904 15.3H38.7404C38.9404 13 39.0404 10.85 39.0404 8.85C39.0738 6.85 39.0404 4.65 38.9404 2.25C39.3404 2.11666 39.8238 2 40.3904 1.9C40.9904 1.8 41.6071 1.73333 42.2404 1.7C42.8738 1.63333 43.4904 1.61667 44.0904 1.65ZM55.0916 1.85C55.8916 1.88333 57.0416 1.88333 58.5416 1.85H59.7416V2.05C59.7416 4.91666 59.6916 7.8 59.5916 10.7C59.5249 13.6 59.4583 16.5167 59.3916 19.45C59.3583 22.35 59.3583 25.25 59.3916 28.15C59.4249 31.05 59.5249 33.9167 59.6916 36.75C59.4249 37.0167 58.8583 37.1667 57.9916 37.2C57.1583 37.2667 56.2416 37.2833 55.2416 37.25C54.2749 37.2167 53.3416 37.1667 52.4416 37.1C51.5416 37.0667 50.9249 37.1 50.5916 37.2C50.8249 34.2 50.9249 31.1833 50.8916 28.15C50.8583 25.1167 50.7916 22.1167 50.6916 19.15C50.6249 16.15 50.5749 13.2 50.5416 10.3C50.5416 7.36666 50.6916 4.5 50.9916 1.7V1.6C51.1583 1.56666 51.4749 1.58333 51.9416 1.65C52.4416 1.68333 52.8083 1.7 53.0416 1.7C53.6416 1.73333 54.3249 1.78333 55.0916 1.85ZM84.4299 31.55C84.4299 31.8833 84.4466 32.1833 84.4799 32.45C84.5466 33.65 84.5799 34.5667 84.5799 35.2C84.5799 35.8 84.5299 36.25 84.4299 36.55C84.3632 36.8167 84.2299 36.9667 84.0299 37C83.8299 37 83.5466 37 83.1799 37C82.8132 36.9667 82.3299 36.9667 81.7299 37C81.1632 37.0333 80.1799 37.0667 78.7799 37.1C77.4132 37.1333 75.5132 37.15 73.0799 37.15C70.6799 37.15 67.4632 37.1167 63.4299 37.05V36.15C63.5299 33.65 63.6132 31.4 63.6799 29.4C63.7465 27.3667 63.7799 25.4833 63.7799 23.75C63.8132 21.9833 63.8299 20.2833 63.8299 18.65C63.8299 17.0167 63.8132 15.35 63.7799 13.65C63.7465 11.95 63.7132 10.15 63.6799 8.25C63.6465 6.31667 63.6132 4.18333 63.5799 1.85C63.9132 1.71667 64.4299 1.61667 65.1299 1.55C65.8299 1.45 66.5799 1.4 67.3799 1.4C68.1799 1.4 68.9632 1.45 69.7299 1.55C70.4965 1.65 71.1132 1.8 71.5799 2C71.5132 4.16666 71.4799 6.4 71.4799 8.7C71.5132 10.9667 71.5466 13.25 71.5799 15.55C71.6132 17.85 71.6299 20.15 71.6299 22.45C71.6632 24.7167 71.6632 26.9167 71.6299 29.05V29.1C71.8632 29.0333 72.2966 29.0167 72.9299 29.05C73.5965 29.05 74.3632 29.0667 75.2299 29.1C76.0965 29.1333 77.0132 29.1833 77.9799 29.25C78.9799 29.2833 79.9132 29.3167 80.7799 29.35C81.6799 29.3833 82.4632 29.4167 83.1299 29.45C83.8299 29.45 84.3132 29.4333 84.5799 29.4C84.5799 29.7667 84.5632 30.1333 84.5299 30.5C84.4966 30.8333 84.4632 31.1833 84.4299 31.55ZM107.477 31.55C107.477 31.8833 107.493 32.1833 107.527 32.45C107.593 33.65 107.627 34.5667 107.627 35.2C107.627 35.8 107.577 36.25 107.477 36.55C107.41 36.8167 107.277 36.9667 107.077 37C106.877 37 106.593 37 106.227 37C105.86 36.9667 105.377 36.9667 104.777 37C104.21 37.0333 103.227 37.0667 101.827 37.1C100.46 37.1333 98.5601 37.15 96.1268 37.15C93.7268 37.15 90.5101 37.1167 86.4768 37.05V36.15C86.5768 33.65 86.6601 31.4 86.7268 29.4C86.7934 27.3667 86.8268 25.4833 86.8268 23.75C86.8601 21.9833 86.8768 20.2833 86.8768 18.65C86.8768 17.0167 86.8601 15.35 86.8268 13.65C86.7934 11.95 86.7601 10.15 86.7268 8.25C86.6934 6.31667 86.6601 4.18333 86.6268 1.85C86.9601 1.71667 87.4768 1.61667 88.1768 1.55C88.8768 1.45 89.6268 1.4 90.4268 1.4C91.2268 1.4 92.0101 1.45 92.7768 1.55C93.5434 1.65 94.1601 1.8 94.6268 2C94.5601 4.16666 94.5268 6.4 94.5268 8.7C94.5601 10.9667 94.5934 13.25 94.6268 15.55C94.6601 17.85 94.6768 20.15 94.6768 22.45C94.7101 24.7167 94.7101 26.9167 94.6768 29.05V29.1C94.9101 29.0333 95.3434 29.0167 95.9768 29.05C96.6434 29.05 97.4101 29.0667 98.2768 29.1C99.1434 29.1333 100.06 29.1833 101.027 29.25C102.027 29.2833 102.96 29.3167 103.827 29.35C104.727 29.3833 105.51 29.4167 106.177 29.45C106.877 29.45 107.36 29.4333 107.627 29.4C107.627 29.7667 107.61 30.1333 107.577 30.5C107.543 30.8333 107.51 31.1833 107.477 31.55Z" fill="white"/>
</svg>
